<svg xmlns="http://www.w3.org/2000/svg" xmlns:xlink="http://www.w3.org/1999/xlink" viewBox="0 0 700 273"><defs><style>.cls-1{isolation:isolate;}.cls-2{fill:#b6e0f4;}.cls-3{fill:#e4f2fb;}.cls-4{fill:#d0d8dc;}.cls-5{fill:#eceff0;}.cls-6{fill:#fbb040;}.cls-19,.cls-37,.cls-7{fill:#fff;}.cls-8{fill:#f4c04d;}.cls-9{mask:url(#mask);}.cls-10,.cls-11{fill:none;}.cls-10{stroke:#71be72;stroke-width:1.82px;}.cls-10,.cls-11,.cls-19,.cls-35,.cls-37,.cls-39{stroke-miterlimit:10;}.cls-11{stroke:#f5844e;stroke-width:0.91px;}.cls-12{fill:#f5844e;}.cls-13{fill:#95c8ec;}.cls-14{fill:#57a7db;}.cls-15{fill:#99cf8c;}.cls-16{fill:#b0bec5;}.cls-17{fill:#0071bc;}.cls-18{fill:#cccbca;}.cls-19,.cls-37{stroke:#d0d8dc;}.cls-19{stroke-width:0.81px;}.cls-20{fill:#71be72;}.cls-21{fill:#54b958;}.cls-22{opacity:0.2;}.cls-23{fill:#78909c;}.cls-24{mask:url(#mask-2);}.cls-25{fill:#73c073;}.cls-26,.cls-27{fill:#f7f7f7;}.cls-26{opacity:0.2;mix-blend-mode:screen;}.cls-28{fill:#e0594b;}.cls-29{fill:#e8ae38;}.cls-30{fill:#e15b5f;}.cls-31{fill:#3f535c;}.cls-32{fill:#273747;}.cls-33{fill:#546e7a;}.cls-34{fill:#69af69;}.cls-35,.cls-39{fill:#303a46;stroke:#838990;}.cls-35{stroke-width:0.19px;}.cls-36{fill:#6db4e3;}.cls-37{stroke-width:0.67px;}.cls-38{opacity:0.2;}.cls-39{stroke-width:0.14px;}.cls-40{filter:url(#luminosity-noclip-2);}.cls-41{filter:url(#luminosity-noclip);}</style><filter id="luminosity-noclip" x="76.99" y="-8863" width="41.1" height="32766" filterUnits="userSpaceOnUse" color-interpolation-filters="sRGB"><feFlood flood-color="#fff" result="bg"/><feBlend in="SourceGraphic" in2="bg"/></filter><mask id="mask" x="76.99" y="-8863" width="41.1" height="32766" maskUnits="userSpaceOnUse"><g class="cls-41"/></mask><filter id="luminosity-noclip-2" x="521.39" y="-8863" width="33.11" height="32766" filterUnits="userSpaceOnUse" color-interpolation-filters="sRGB"><feFlood flood-color="#fff" result="bg"/><feBlend in="SourceGraphic" in2="bg"/></filter><mask id="mask-2" x="521.39" y="-8863" width="33.11" height="32766" maskUnits="userSpaceOnUse"><g class="cls-40"/></mask></defs><title>cybersecurity-services</title><g class="cls-1"><g id="Layer_3" data-name="Layer 3"><g id="_Group_" data-name="&lt;Group&gt;"><g id="_Group_2" data-name="&lt;Group&gt;"><g id="_Group_3" data-name="&lt;Group&gt;"><g id="_Group_4" data-name="&lt;Group&gt;"><g id="_Group_5" data-name="&lt;Group&gt;"><g id="_Group_6" data-name="&lt;Group&gt;"><g id="_Group_7" data-name="&lt;Group&gt;"><g id="_Group_8" data-name="&lt;Group&gt;"><g id="_Group_9" data-name="&lt;Group&gt;"><g id="_Group_10" data-name="&lt;Group&gt;"><g id="_Group_11" data-name="&lt;Group&gt;"><g id="_Group_12" data-name="&lt;Group&gt;"><g id="_Group_13" data-name="&lt;Group&gt;"><g id="_Group_14" data-name="&lt;Group&gt;"><path id="_Compound_Path_" data-name="&lt;Compound Path&gt;" class="cls-2" d="M119.76,173.25l5.06-2.17a24.85,24.85,0,0,0-.72-6.58l-5.43-.94a29.3,29.3,0,0,0-1.88-4.05l2.82-4.7a29,29,0,0,0-4.49-4.92l-5,2.46a21,21,0,0,0-3.91-2.24l-.51-5.5a22.91,22.91,0,0,0-3.18-.87,25.1,25.1,0,0,0-3.26-.43l-2.6,4.85a23,23,0,0,0-4.49.51l-3.62-4.2a26.5,26.5,0,0,0-6,2.75l.8,5.5a26.78,26.78,0,0,0-3.33,3l-5.35-1.23a28.36,28.36,0,0,0-3.26,5.79l3.83,4c-.22.72-.43,1.45-.58,2.17s-.29,1.52-.36,2.24l-5.06,2.17a24.85,24.85,0,0,0,.72,6.58l5.43.94a29.3,29.3,0,0,0,1.88,4.05l-2.82,4.7A29,29,0,0,0,79,192.06l4.92-2.39a26,26,0,0,0,3.91,2.24l.43,5.5a22.91,22.91,0,0,0,3.18.87,25.1,25.1,0,0,0,3.26.43l2.6-4.85a23,23,0,0,0,4.49-.51l3.62,4.2a26.5,26.5,0,0,0,6-2.75l-.8-5.43a26.78,26.78,0,0,0,3.33-3l5.35,1.23a28.36,28.36,0,0,0,3.26-5.79l-3.83-4c.22-.72.43-1.45.58-2.17A15.7,15.7,0,0,1,119.76,173.25Zm-10.13.43A13,13,0,1,1,99.5,158.34,13,13,0,0,1,109.63,173.68Z"/></g></g></g></g></g></g></g></g></g></g></g><g id="_Group_15" data-name="&lt;Group&gt;"><g id="_Group_16" data-name="&lt;Group&gt;"><path id="_Compound_Path_2" data-name="&lt;Compound Path&gt;" class="cls-3" d="M113,174.4a16.4,16.4,0,1,0-19.32,12.73A16.42,16.42,0,0,0,113,174.4Zm-7.81-1.66a8.41,8.41,0,1,1-6.58-9.91A8.41,8.41,0,0,1,105.15,172.74Z"/></g></g></g><g id="_Group_17" data-name="&lt;Group&gt;"><g id="_Group_18" data-name="&lt;Group&gt;"><g id="_Group_19" data-name="&lt;Group&gt;"><g id="_Group_20" data-name="&lt;Group&gt;"><g id="_Group_21" data-name="&lt;Group&gt;"><g id="_Group_22" data-name="&lt;Group&gt;"><g id="_Group_23" data-name="&lt;Group&gt;"><g id="_Group_24" data-name="&lt;Group&gt;"><g id="_Group_25" data-name="&lt;Group&gt;"><g id="_Group_26" data-name="&lt;Group&gt;"><g id="_Group_27" data-name="&lt;Group&gt;"><g id="_Group_28" data-name="&lt;Group&gt;"><path id="_Compound_Path_3" data-name="&lt;Compound Path&gt;" class="cls-4" d="M153.84,147.2l3.76-1.59a21.67,21.67,0,0,0-.58-4.85L153,140a14.45,14.45,0,0,0-1.37-3l2.1-3.47a22.45,22.45,0,0,0-3.33-3.62l-3.69,1.81a16.61,16.61,0,0,0-2.89-1.66l-.36-4.05a14.65,14.65,0,0,0-2.39-.65,15.55,15.55,0,0,0-2.46-.36l-1.88,3.62a16.75,16.75,0,0,0-3.33.36l-2.68-3.11a19.35,19.35,0,0,0-4.49,2l.58,4.05a18.11,18.11,0,0,0-2.46,2.24l-4-.94A22.31,22.31,0,0,0,118,137.5l2.82,3a10.22,10.22,0,0,0-.43,1.59c-.07.58-.14,1.09-.22,1.66l-3.76,1.59a21.67,21.67,0,0,0,.58,4.85l4.05.72a14.45,14.45,0,0,0,1.37,3l-2.1,3.47A22.45,22.45,0,0,0,123.6,161l3.69-1.81a14.32,14.32,0,0,0,2.89,1.66l.36,4.05a14.65,14.65,0,0,0,2.39.65,15.55,15.55,0,0,0,2.46.36l1.88-3.62a16.75,16.75,0,0,0,3.33-.36l2.68,3.11a19.35,19.35,0,0,0,4.49-2l-.58-4.05a18.11,18.11,0,0,0,2.46-2.24l4,.94a22.31,22.31,0,0,0,2.39-4.27l-2.82-3a10.22,10.22,0,0,0,.43-1.59C153.7,148.36,153.77,147.78,153.84,147.2Zm-7.31.22A9.64,9.64,0,1,1,139,136.06,9.64,9.64,0,0,1,146.53,147.42Z"/></g></g></g></g></g></g></g></g></g></g></g><g id="_Group_29" data-name="&lt;Group&gt;"><g id="_Group_30" data-name="&lt;Group&gt;"><g id="_Group_31" data-name="&lt;Group&gt;"><path id="_Compound_Path_4" data-name="&lt;Compound Path&gt;" class="cls-5" d="M149,147.92a12.15,12.15,0,1,0-14.33,9.48A12.18,12.18,0,0,0,149,147.92Zm-5.86-1.16a6.24,6.24,0,1,1-4.85-7.38A6.21,6.21,0,0,1,143.13,146.76Z"/></g></g></g></g></g></g><path class="cls-6" d="M132,184.84a6.85,6.85,0,0,0-5,2.55l-6.93,9.7H76.38a3.14,3.14,0,0,0-3.14,3.14v35.14c0,1.27,1.32,2.3,3,2.3h89.73c1.64,0,3-1,3-2.3V187.14c0-1.27-1.32-2.3-3-2.3Z"/><rect class="cls-3" x="92.95" y="203.69" width="76.56" height="25.26"/><path class="cls-7" d="M80.64,203.69V229H164V203.69Z"/><path class="cls-8" d="M105.74,207.87a6.85,6.85,0,0,1,5,2.55l6.93,9.7h48.11a3.14,3.14,0,0,1,3.14,3.14v39c0,1.27-1.32,2.3-3,2.3H76.2c-1.64,0-3-1-3-2.3V210.17c0-1.27,1.32-2.3,3-2.3Z"/><g class="cls-9"><polygon class="cls-3" points="110.02 115.86 101.95 122.05 101.95 115.54 76.99 115.54 76.99 103.78 101.95 103.78 101.95 97.27 110.02 103.47 118.09 109.66 110.02 115.86"/></g><polyline class="cls-10" points="600.92 255.65 455.7 255.65 455.89 114.11 603.12 114.11 603.12 183.73"/><line class="cls-11" x1="408.57" y1="237.49" x2="451.36" y2="237.49"/><g id="_Group_32" data-name="&lt;Group&gt;"><polygon id="_Path_" data-name="&lt;Path&gt;" class="cls-12" points="439.4 230.32 451.74 237.46 439.4 244.59 439.4 230.32"/></g><line class="cls-11" x1="408.57" y1="199.23" x2="451.36" y2="199.23"/><g id="_Group_33" data-name="&lt;Group&gt;"><polygon id="_Path_2" data-name="&lt;Path&gt;" class="cls-12" points="439.4 192.06 451.74 199.2 439.4 206.34 439.4 192.06"/></g><line class="cls-11" x1="408.57" y1="218.34" x2="451.36" y2="218.34"/><g id="_Group_34" data-name="&lt;Group&gt;"><polygon id="_Path_3" data-name="&lt;Path&gt;" class="cls-12" points="439.4 211.17 451.74 218.31 439.4 225.44 439.4 211.17"/></g><line class="cls-11" x1="651" y1="125.01" x2="608.21" y2="125.01"/><g id="_Group_35" data-name="&lt;Group&gt;"><polygon id="_Path_4" data-name="&lt;Path&gt;" class="cls-12" points="620.17 132.18 607.83 125.04 620.17 117.91 620.17 132.18"/></g><line class="cls-11" x1="651" y1="145.98" x2="608.21" y2="145.98"/><g id="_Group_36" data-name="&lt;Group&gt;"><polygon id="_Path_5" data-name="&lt;Path&gt;" class="cls-12" points="620.17 153.15 607.83 146.01 620.17 138.88 620.17 153.15"/></g><path class="cls-13" d="M487.26,141.79c0,.42-.85.84-1.27.84h-9.74a.91.91,0,0,1-.85-.84v-9.71a.91.91,0,0,1,.85-.84H486c.42,0,1.27.42,1.27.84Z"/><path class="cls-14" d="M503.36,141.79a.91.91,0,0,1-.85.84h-9.74c-.42,0-1.27-.42-1.27-.84v-9.71c0-.42.85-.84,1.27-.84h9.74a.91.91,0,0,1,.85.84Z"/><path class="cls-8" d="M519.88,141.79c0,.42-.85.84-1.27.84h-9.74a.91.91,0,0,1-.85-.84v-9.71a.91.91,0,0,1,.85-.84h9.74c.42,0,1.27.42,1.27.84Z"/><path class="cls-13" d="M536,141.79a.91.91,0,0,1-.85.84h-9.74c-.42,0-1.27-.42-1.27-.84v-9.71c0-.42.85-.84,1.27-.84h9.74a.91.91,0,0,1,.85.84Z"/><path class="cls-8" d="M487.26,157.83c0,.42-.85.84-1.27.84h-9.74a.91.91,0,0,1-.85-.84v-9.71a.91.91,0,0,1,.85-.84H486c.42,0,1.27.42,1.27.84Z"/><path class="cls-13" d="M503.36,157.83a.91.91,0,0,1-.85.84h-9.74c-.42,0-1.27-.42-1.27-.84v-9.71c0-.42.85-.84,1.27-.84h9.74a.91.91,0,0,1,.85.84Z"/><path class="cls-15" d="M519.88,157.83c0,.42-.85.84-1.27.84h-9.74a.91.91,0,0,1-.85-.84v-9.71a.91.91,0,0,1,.85-.84h9.74c.42,0,1.27.42,1.27.84Z"/><path class="cls-16" d="M536,157.83a.91.91,0,0,1-.85.84h-9.74c-.42,0-1.27-.42-1.27-.84v-9.71c0-.42.85-.84,1.27-.84h9.74a.91.91,0,0,1,.85.84Z"/><path class="cls-14" d="M487.26,173.87c0,.42-.85.84-1.27.84h-9.74a.91.91,0,0,1-.85-.84v-9.71a.91.91,0,0,1,.85-.84H486c.42,0,1.27.42,1.27.84Z"/><path class="cls-16" d="M503.36,173.87a.91.91,0,0,1-.85.84h-9.74c-.42,0-1.27-.42-1.27-.84v-9.71c0-.42.85-.84,1.27-.84h9.74a.91.91,0,0,1,.85.84Z"/><path class="cls-17" d="M519.88,173.87c0,.42-.85.84-1.27.84h-9.74a.91.91,0,0,1-.85-.84v-9.71a.91.91,0,0,1,.85-.84h9.74c.42,0,1.27.42,1.27.84Z"/><path class="cls-8" d="M536,173.87a.91.91,0,0,1-.85.84h-9.74c-.42,0-1.27-.42-1.27-.84v-9.71c0-.42.85-.84,1.27-.84h9.74a.91.91,0,0,1,.85.84Z"/><path class="cls-16" d="M487.26,189.91c0,.42-.85.84-1.27.84h-9.74a.91.91,0,0,1-.85-.84V180.2c0-.84.42-1.27.85-1.27H486a1.35,1.35,0,0,1,1.27,1.27Z"/><path class="cls-8" d="M503.36,189.91a.91.91,0,0,1-.85.84h-9.74c-.42,0-1.27-.42-1.27-.84V180.2a1.35,1.35,0,0,1,1.27-1.27h9.74c.42,0,.85.42.85,1.27Z"/><path class="cls-18" d="M519.88,189.91c0,.42-.85.84-1.27.84h-9.74a.91.91,0,0,1-.85-.84V180.2c0-.84.42-1.27.85-1.27h9.74a1.35,1.35,0,0,1,1.27,1.27Z"/><path class="cls-13" d="M536,189.91a.91.91,0,0,1-.85.84h-9.74c-.42,0-1.27-.42-1.27-.84V180.2a1.35,1.35,0,0,1,1.27-1.27h9.74c.42,0,.85.42.85,1.27Z"/><path class="cls-16" d="M551.65,141.79c0,.42-.42.84-1.27.84h-9.32c-.85,0-1.27-.42-1.27-.84v-9.71c0-.42.42-.84,1.27-.84h9.32c.85,0,1.27.42,1.27.84Z"/><path class="cls-15" d="M551.65,157.83c0,.42-.42.84-1.27.84h-9.32c-.85,0-1.27-.42-1.27-.84v-9.71c0-.42.42-.84,1.27-.84h9.32c.85,0,1.27.42,1.27.84Z"/><path class="cls-14" d="M551.65,173.87c0,.42-.42.84-1.27.84h-9.32c-.85,0-1.27-.42-1.27-.84v-9.71c0-.42.42-.84,1.27-.84h9.32c.85,0,1.27.42,1.27.84Z"/><path class="cls-16" d="M551.65,189.91c0,.42-.42.84-1.27.84h-9.32c-.85,0-1.27-.42-1.27-.84V180.2a1.12,1.12,0,0,1,1.27-1.27h9.32a1.12,1.12,0,0,1,1.27,1.27Z"/><path class="cls-18" d="M487.26,205.53A1.35,1.35,0,0,1,486,206.8h-9.74c-.42,0-.85-.42-.85-1.27v-9.29c0-.84.42-1.27.85-1.27H486a1.35,1.35,0,0,1,1.27,1.27Z"/><path class="cls-13" d="M503.36,205.53c0,.84-.42,1.27-.85,1.27h-9.74a1.35,1.35,0,0,1-1.27-1.27v-9.29a1.35,1.35,0,0,1,1.27-1.27h9.74c.42,0,.85.42.85,1.27Z"/><path class="cls-14" d="M519.88,205.53a1.35,1.35,0,0,1-1.27,1.27h-9.74c-.42,0-.85-.42-.85-1.27v-9.29c0-.84.42-1.27.85-1.27h9.74a1.35,1.35,0,0,1,1.27,1.27Z"/><path class="cls-17" d="M536,205.53c0,.84-.42,1.27-.85,1.27h-9.74a1.35,1.35,0,0,1-1.27-1.27v-9.29a1.35,1.35,0,0,1,1.27-1.27h9.74c.42,0,.85.42.85,1.27Z"/><path class="cls-8" d="M551.65,205.53a1.12,1.12,0,0,1-1.27,1.27h-9.32a1.12,1.12,0,0,1-1.27-1.27v-9.29a1.12,1.12,0,0,1,1.27-1.27h9.32a1.12,1.12,0,0,1,1.27,1.27Z"/><path class="cls-13" d="M567.59,141.79a.91.91,0,0,1-.85.84H557c-.42,0-1.27-.42-1.27-.84v-9.71c0-.42.85-.84,1.27-.84h9.74a.91.91,0,0,1,.85.84Z"/><path class="cls-14" d="M567.59,157.83a.91.91,0,0,1-.85.84H557c-.42,0-1.27-.42-1.27-.84v-9.71c0-.42.85-.84,1.27-.84h9.74a.91.91,0,0,1,.85.84Z"/><path class="cls-8" d="M567.59,173.87a.91.91,0,0,1-.85.84H557c-.42,0-1.27-.42-1.27-.84v-9.71c0-.42.85-.84,1.27-.84h9.74a.91.91,0,0,1,.85.84Z"/><path class="cls-13" d="M567.59,189.91a.91.91,0,0,1-.85.84H557c-.42,0-1.27-.42-1.27-.84V180.2a1.35,1.35,0,0,1,1.27-1.27h9.74c.42,0,.85.42.85,1.27Z"/><path class="cls-16" d="M583.26,141.79c0,.42-.42.84-1.27.84h-9.32c-.85,0-1.27-.42-1.27-.84v-9.71c0-.42.42-.84,1.27-.84H582c.85,0,1.27.42,1.27.84Z"/><path class="cls-14" d="M583.26,157.83c0,.42-.42.84-1.27.84h-9.32c-.85,0-1.27-.42-1.27-.84v-9.71c0-.42.42-.84,1.27-.84H582c.85,0,1.27.42,1.27.84Z"/><path class="cls-14" d="M583.26,173.87c0,.42-.42.84-1.27.84h-9.32c-.85,0-1.27-.42-1.27-.84v-9.71c0-.42.42-.84,1.27-.84H582c.85,0,1.27.42,1.27.84Z"/><path class="cls-14" d="M583.26,189.91c0,.42-.42.84-1.27.84h-9.32c-.85,0-1.27-.42-1.27-.84V180.2a1.12,1.12,0,0,1,1.27-1.27H582a1.12,1.12,0,0,1,1.27,1.27Z"/><path class="cls-17" d="M567.59,205.53c0,.84-.42,1.27-.85,1.27H557a1.35,1.35,0,0,1-1.27-1.27v-9.29A1.35,1.35,0,0,1,557,195h9.74c.42,0,.85.42.85,1.27Z"/><path class="cls-8" d="M583.26,205.53A1.12,1.12,0,0,1,582,206.8h-9.32a1.12,1.12,0,0,1-1.27-1.27v-9.29a1.12,1.12,0,0,1,1.27-1.27H582a1.12,1.12,0,0,1,1.27,1.27Z"/><path class="cls-16" d="M487.26,222.1c0,.42-.85.84-1.27.84h-9.74a.91.91,0,0,1-.85-.84v-9.71c0-.84.42-1.27.85-1.27H486a1.35,1.35,0,0,1,1.27,1.27Z"/><path class="cls-8" d="M503.36,222.1a.91.91,0,0,1-.85.84h-9.74c-.42,0-1.27-.42-1.27-.84v-9.71a1.35,1.35,0,0,1,1.27-1.27h9.74c.42,0,.85.42.85,1.27Z"/><path class="cls-14" d="M519.88,222.1c0,.42-.85.84-1.27.84h-9.74a.91.91,0,0,1-.85-.84v-9.71c0-.84.42-1.27.85-1.27h9.74a1.35,1.35,0,0,1,1.27,1.27Z"/><path class="cls-13" d="M536,222.1a.91.91,0,0,1-.85.84h-9.74c-.42,0-1.27-.42-1.27-.84v-9.71a1.35,1.35,0,0,1,1.27-1.27h9.74c.42,0,.85.42.85,1.27Z"/><path class="cls-16" d="M551.65,222.1c0,.42-.42.84-1.27.84h-9.32c-.85,0-1.27-.42-1.27-.84v-9.71a1.12,1.12,0,0,1,1.27-1.27h9.32a1.12,1.12,0,0,1,1.27,1.27Z"/><path class="cls-14" d="M487.26,237.72A1.35,1.35,0,0,1,486,239h-9.74c-.42,0-.85-.42-.85-1.27v-9.29c0-.84.42-1.27.85-1.27H486a1.35,1.35,0,0,1,1.27,1.27Z"/><path class="cls-13" d="M503.36,237.72c0,.84-.42,1.27-.85,1.27h-9.74a1.35,1.35,0,0,1-1.27-1.27v-9.29a1.35,1.35,0,0,1,1.27-1.27h9.74c.42,0,.85.42.85,1.27Z"/><path class="cls-15" d="M519.88,237.72a1.35,1.35,0,0,1-1.27,1.27h-9.74c-.42,0-.85-.42-.85-1.27v-9.29c0-.84.42-1.27.85-1.27h9.74a1.35,1.35,0,0,1,1.27,1.27Z"/><path class="cls-17" d="M536,237.72c0,.84-.42,1.27-.85,1.27h-9.74a1.35,1.35,0,0,1-1.27-1.27v-9.29a1.35,1.35,0,0,1,1.27-1.27h9.74c.42,0,.85.42.85,1.27Z"/><path class="cls-8" d="M551.65,237.72a1.12,1.12,0,0,1-1.27,1.27h-9.32a1.12,1.12,0,0,1-1.27-1.27v-9.29a1.12,1.12,0,0,1,1.27-1.27h9.32a1.12,1.12,0,0,1,1.27,1.27Z"/><path class="cls-13" d="M567.59,222.1a.91.91,0,0,1-.85.84H557c-.42,0-1.27-.42-1.27-.84v-9.71a1.35,1.35,0,0,1,1.27-1.27h9.74c.42,0,.85.42.85,1.27Z"/><path class="cls-16" d="M583.26,222.1c0,.42-.42.84-1.27.84h-9.32c-.85,0-1.27-.42-1.27-.84v-9.71a1.12,1.12,0,0,1,1.27-1.27H582a1.12,1.12,0,0,1,1.27,1.27Z"/><path class="cls-17" d="M567.59,237.72c0,.84-.42,1.27-.85,1.27H557a1.35,1.35,0,0,1-1.27-1.27v-9.29a1.35,1.35,0,0,1,1.27-1.27h9.74c.42,0,.85.42.85,1.27Z"/><path class="cls-8" d="M583.26,237.72A1.12,1.12,0,0,1,582,239h-9.32a1.12,1.12,0,0,1-1.27-1.27v-9.29a1.12,1.12,0,0,1,1.27-1.27H582a1.12,1.12,0,0,1,1.27,1.27Z"/><path id="_Path_6" data-name="&lt;Path&gt;" class="cls-15" d="M601.81,156.28V159h-.67a1.92,1.92,0,0,0-1.91,1.91v17.47a1.92,1.92,0,0,0,1.91,1.91h.67v2.77h3.44v-2.77h.67a1.92,1.92,0,0,0,1.91-1.91V161a1.92,1.92,0,0,0-1.91-1.91h-.67v-2.77Z"/><path id="_Path_7" data-name="&lt;Path&gt;" class="cls-15" d="M595.81,254.06H593v-.67a1.92,1.92,0,0,0-1.91-1.91H573.65a1.92,1.92,0,0,0-1.91,1.91v.67H569v3.44h2.77v.67a1.92,1.92,0,0,0,1.91,1.91h17.47a1.92,1.92,0,0,0,1.91-1.91v-.67h2.77Z"/><g id="_Group_37" data-name="&lt;Group&gt;"><g id="_Group_38" data-name="&lt;Group&gt;"><g id="_Group_39" data-name="&lt;Group&gt;"><g id="_Group_40" data-name="&lt;Group&gt;"><g id="_Group_41" data-name="&lt;Group&gt;"><g id="_Group_42" data-name="&lt;Group&gt;"><g id="_Group_43" data-name="&lt;Group&gt;"><g id="_Group_44" data-name="&lt;Group&gt;"><g id="_Group_45" data-name="&lt;Group&gt;"><g id="_Group_46" data-name="&lt;Group&gt;"><path id="_Path_8" data-name="&lt;Path&gt;" class="cls-19" d="M644.24,182.7A55.52,55.52,0,0,1,603.07,170a55.28,55.28,0,0,1-41.18,12.71s-7.67,69.22,41.18,83C651.91,251.82,644.24,182.7,644.24,182.7Z"/></g></g></g></g></g></g></g></g><g id="_Group_47" data-name="&lt;Group&gt;"><g id="_Group_48" data-name="&lt;Group&gt;"><g id="_Group_49" data-name="&lt;Group&gt;"><g id="_Group_50" data-name="&lt;Group&gt;"><g id="_Group_51" data-name="&lt;Group&gt;"><g id="_Group_52" data-name="&lt;Group&gt;"><g id="_Group_53" data-name="&lt;Group&gt;"><g id="_Group_54" data-name="&lt;Group&gt;"><path id="_Path_9" data-name="&lt;Path&gt;" class="cls-20" d="M603.17,256.76c-30.25-10.29-33.3-48.64-33.09-65.34a65.54,65.54,0,0,0,33.09-10.82,64.18,64.18,0,0,0,33.09,10.82C636.37,208,633.32,246.36,603.17,256.76Z"/></g></g></g></g></g></g></g></g><g id="_Group_55" data-name="&lt;Group&gt;"><g id="_Group_56" data-name="&lt;Group&gt;"><g id="_Group_57" data-name="&lt;Group&gt;"><g id="_Group_58" data-name="&lt;Group&gt;"><g id="_Group_59" data-name="&lt;Group&gt;"><g id="_Group_60" data-name="&lt;Group&gt;"><g id="_Group_61" data-name="&lt;Group&gt;"><g id="_Group_62" data-name="&lt;Group&gt;"><path id="_Path_10" data-name="&lt;Path&gt;" class="cls-15" d="M603.38,184.49h0v68.28h0c27.1-9.24,29.73-43.59,29.62-58.62A57.84,57.84,0,0,1,603.38,184.49Z"/></g></g></g></g></g></g></g></g><g id="_Group_63" data-name="&lt;Group&gt;"><g id="_Group_64" data-name="&lt;Group&gt;"><g id="_Group_65" data-name="&lt;Group&gt;"><g id="_Group_66" data-name="&lt;Group&gt;"><g id="_Group_67" data-name="&lt;Group&gt;"><g id="_Group_68" data-name="&lt;Group&gt;"><g id="_Group_69" data-name="&lt;Group&gt;"><g id="_Group_70" data-name="&lt;Group&gt;"><path id="_Compound_Path_5" data-name="&lt;Compound Path&gt;" class="cls-21" d="M603.17,257.6l-.32-.11C572,246.88,569,207.7,569.24,191.42v-.84h.84a63.21,63.21,0,0,0,32.67-10.71l.42-.32.42.32a64.39,64.39,0,0,0,32.56,10.71H637v.84c.11,16.39-2.84,55.57-33.61,66.07Zm-32.25-65.44c-.11,16.39,3,53.47,32.25,63.66,29-10.19,32.25-47.17,32.25-63.66a66.07,66.07,0,0,1-32.25-10.61A66.07,66.07,0,0,1,570.92,192.15Z"/></g></g></g></g></g></g></g></g></g><g id="_Group_71" data-name="&lt;Group&gt;"><g id="_Group_72" data-name="&lt;Group&gt;"><g id="_Group_73" data-name="&lt;Group&gt;" class="cls-22"><g id="_Group_74" data-name="&lt;Group&gt;"><path id="_Compound_Path_6" data-name="&lt;Compound Path&gt;" d="M619.56,210.54h-1.68V206a12.87,12.87,0,0,0-12.82-12.82h-.32A12.87,12.87,0,0,0,591.93,206v4.52h-1.68a2.11,2.11,0,0,0-2.1,2.1V236.8a2.11,2.11,0,0,0,2.1,2.1h29.31a2.11,2.11,0,0,0,2.1-2.1V212.64A2.17,2.17,0,0,0,619.56,210.54Zm-23.53,0V206a8.7,8.7,0,0,1,8.72-8.72h.32a8.7,8.7,0,0,1,8.72,8.72v4.52Z"/></g></g><g id="_Group_75" data-name="&lt;Group&gt;"><g id="_Group_76" data-name="&lt;Group&gt;"><g id="_Group_77" data-name="&lt;Group&gt;"><g id="_Group_78" data-name="&lt;Group&gt;"><path id="_Path_11" data-name="&lt;Path&gt;" class="cls-4" d="M619.77,234.91a2.11,2.11,0,0,1-2.1,2.1H588.36a2.11,2.11,0,0,1-2.1-2.1V210.75a2.11,2.11,0,0,1,2.1-2.1h29.31a2.11,2.11,0,0,1,2.1,2.1Z"/></g></g></g><g id="_Group_79" data-name="&lt;Group&gt;"><g id="_Group_80" data-name="&lt;Group&gt;"><g id="_Group_81" data-name="&lt;Group&gt;"><g id="_Group_82" data-name="&lt;Group&gt;"><g id="_Group_83" data-name="&lt;Group&gt;"><g id="_Group_84" data-name="&lt;Group&gt;"><g id="_Group_85" data-name="&lt;Group&gt;"><g id="_Group_86" data-name="&lt;Group&gt;"><path id="_Path_12" data-name="&lt;Path&gt;" class="cls-7" d="M594.24,208.75v-4.52a8.7,8.7,0,0,1,8.72-8.72h.32a8.7,8.7,0,0,1,8.72,8.72v4.52h4.1v-4.52a12.87,12.87,0,0,0-12.82-12.82H603a12.87,12.87,0,0,0-12.82,12.82v4.52Z"/></g></g></g></g></g></g></g></g><g id="_Group_87" data-name="&lt;Group&gt;"><g id="_Group_88" data-name="&lt;Group&gt;"><g id="_Group_89" data-name="&lt;Group&gt;"><g id="_Group_90" data-name="&lt;Group&gt;"><g id="_Group_91" data-name="&lt;Group&gt;"><g id="_Group_92" data-name="&lt;Group&gt;"><g id="_Group_93" data-name="&lt;Group&gt;"><g id="_Group_94" data-name="&lt;Group&gt;"><path id="_Path_13" data-name="&lt;Path&gt;" class="cls-23" d="M607.69,220.41a4.62,4.62,0,0,0-9.24,0,4.55,4.55,0,0,0,3,4.31v6.2h3.15v-6.2A4.55,4.55,0,0,0,607.69,220.41Z"/></g></g></g></g></g></g></g></g></g></g></g></g><g class="cls-24"><polygon class="cls-3" points="527.05 95.95 532.71 91.6 532.71 96.17 554.5 96.17 554.5 104.42 532.71 104.42 532.71 108.98 527.05 104.64 521.39 100.29 527.05 95.95"/></g><path class="cls-2" d="M463,21a6.69,6.69,0,0,0-6.69-6.69H321A6.69,6.69,0,0,0,314.29,21V224.9H463Z"/><path class="cls-3" d="M314.29,224.9v33.43A6.69,6.69,0,0,0,321,265H456.35a6.69,6.69,0,0,0,6.69-6.69V224.9Z"/><rect class="cls-13" x="320.98" y="231.58" width="135.37" height="26.74"/><rect class="cls-3" x="329.34" y="121.28" width="120.33" height="33.43"/><rect class="cls-3" x="329.34" y="77.82" width="120.33" height="33.43"/><rect class="cls-3" x="329.34" y="34.37" width="120.33" height="33.43"/><rect class="cls-14" x="417.91" y="121.28" width="31.75" height="33.43"/><rect class="cls-14" x="417.91" y="77.82" width="31.75" height="33.43"/><rect class="cls-14" x="417.91" y="34.37" width="31.75" height="33.43"/><rect class="cls-17" x="341.04" y="44.4" width="68.52" height="3.34"/><rect class="cls-17" x="341.04" y="51.08" width="68.52" height="3.34"/><rect class="cls-17" x="341.04" y="57.77" width="68.52" height="3.34"/><circle class="cls-25" cx="433.51" cy="52.76" r="6.69"/><path class="cls-26" d="M434.69,46.19A6.64,6.64,0,0,1,429,57.65a6.67,6.67,0,1,0,5.7-11.46Z"/><circle class="cls-27" cx="430.73" cy="50.53" r="1.39"/><rect class="cls-17" x="341.04" y="86.18" width="68.52" height="3.34"/><rect class="cls-17" x="341.04" y="92.87" width="68.52" height="3.34"/><rect class="cls-17" x="341.04" y="99.55" width="68.52" height="3.34"/><circle class="cls-28" cx="433.51" cy="94.54" r="6.69"/><path class="cls-26" d="M434.69,88A6.64,6.64,0,0,1,429,99.43,6.67,6.67,0,1,0,434.69,88Z"/><circle class="cls-27" cx="430.73" cy="92.31" r="1.39"/><rect class="cls-17" x="341.04" y="129.63" width="68.52" height="3.34"/><rect class="cls-17" x="341.04" y="136.32" width="68.52" height="3.34"/><rect class="cls-17" x="341.04" y="143" width="68.52" height="3.34"/><circle class="cls-29" cx="433.51" cy="137.99" r="6.69"/><path class="cls-26" d="M434.69,131.43a6.64,6.64,0,0,1-5.7,11.46,6.67,6.67,0,1,0,5.7-11.46Z"/><circle class="cls-27" cx="430.73" cy="135.76" r="1.39"/><rect class="cls-3" x="329.34" y="164.73" width="120.33" height="33.43"/><rect class="cls-14" x="417.91" y="164.73" width="31.75" height="33.43"/><rect class="cls-17" x="341.04" y="173.09" width="68.52" height="3.34"/><rect class="cls-17" x="341.04" y="179.77" width="68.52" height="3.34"/><rect class="cls-17" x="341.04" y="186.46" width="68.52" height="3.34"/><circle class="cls-30" cx="433.51" cy="181.44" r="6.69"/><path class="cls-26" d="M434.69,174.88a6.64,6.64,0,0,1-5.7,11.46,6.67,6.67,0,1,0,5.7-11.46Z"/><circle class="cls-27" cx="430.73" cy="179.22" r="1.39"/><path class="cls-3" d="M444.66,251.64a1.67,1.67,0,0,1-1.67,1.67H337.69a1.67,1.67,0,0,1-1.67-1.67h0a1.67,1.67,0,0,1,1.67-1.67H443a1.67,1.67,0,0,1,1.67,1.67Z"/><path class="cls-3" d="M444.66,245a1.67,1.67,0,0,1-1.67,1.67H337.69A1.67,1.67,0,0,1,336,245h0a1.67,1.67,0,0,1,1.67-1.67H443a1.67,1.67,0,0,1,1.67,1.67Z"/><path class="cls-3" d="M444.66,238.27a1.67,1.67,0,0,1-1.67,1.67H337.69a1.67,1.67,0,0,1-1.67-1.67h0a1.67,1.67,0,0,1,1.67-1.67H443a1.67,1.67,0,0,1,1.67,1.67Z"/><g id="_Group_95" data-name="&lt;Group&gt;"><g id="_Group_96" data-name="&lt;Group&gt;"><g id="_Group_97" data-name="&lt;Group&gt;"><path id="_Compound_Path_7" data-name="&lt;Compound Path&gt;" class="cls-5" d="M129.09,72.72a55.55,55.55,0,0,0,55.14,55.54H185a55.55,55.55,0,0,0,0-111.09h-.81A55.55,55.55,0,0,0,129.09,72.72ZM166.84,25c-9.84,9.3-16.45,26.15-17,45.43H133.67A51.18,51.18,0,0,1,166.84,25Zm10.52-1.62c-5.26,10.11-7.55,30.87-7.68,47.05h-15.1C155.11,47.51,164.68,28.63,177.35,23.38Zm17.53,46.92H174.25c.27-31.28,6.88-48.4,10.38-48.53h0C188,21.89,194.61,39,194.88,70.29Zm19.68,0h-15c-.27-16.18-2.43-36.94-7.68-47.05C204.45,28.63,214,47.51,214.56,70.29Zm20.9.13H219.28c-.54-19.28-7.15-36.13-17-45.43A51,51,0,0,1,235.46,70.43Zm-33.16,50c9.84-9.3,16.45-26.15,17-45.43h16.18A51.13,51.13,0,0,1,202.29,120.44Zm-10.52,1.62c5.26-10.11,7.55-30.87,7.68-47.05h15.1C214,97.79,204.45,116.8,191.78,122.06ZM174.25,75h20.63c-.27,31.28-6.88,48.4-10.38,48.53h0C181.13,123.41,174.52,106.29,174.25,75Zm-19.68,0h15.1c.27,16.18,2.43,36.94,7.68,47.05C164.68,116.8,155.11,97.79,154.57,75Zm-20.9,0h16.18c.54,19.28,7.28,36.13,17,45.43A51.33,51.33,0,0,1,133.67,75Z"/></g></g><g id="_Group_98" data-name="&lt;Group&gt;"><g id="_Group_99" data-name="&lt;Group&gt;"><g id="_Group_100" data-name="&lt;Group&gt;"><path id="_Path_14" data-name="&lt;Path&gt;" class="cls-5" d="M211.19,96.58l1.21-4.45A82.12,82.12,0,0,0,198.92,89c-.13,1.48-.27,3.1-.4,4.58A91.57,91.57,0,0,1,211.19,96.58Z"/></g></g><g id="_Group_101" data-name="&lt;Group&gt;"><g id="_Group_102" data-name="&lt;Group&gt;"><path id="_Path_15" data-name="&lt;Path&gt;" class="cls-5" d="M156.73,92.13c.4,1.62.81,3,1.21,4.45a72.57,72.57,0,0,1,12.67-3c-.13-1.48-.27-3.1-.4-4.58A85.45,85.45,0,0,0,156.73,92.13Z"/></g></g><g id="_Group_103" data-name="&lt;Group&gt;"><g id="_Group_104" data-name="&lt;Group&gt;"><path id="_Path_16" data-name="&lt;Path&gt;" class="cls-5" d="M174.93,88.49c.13,1.62.27,3.1.4,4.58a69.06,69.06,0,0,1,9.3-.54c3.1,0,6.2.27,9.3.54.13-1.48.27-3,.4-4.58a87.63,87.63,0,0,0-19.41,0Z"/></g></g><g id="_Group_105" data-name="&lt;Group&gt;"><g id="_Group_106" data-name="&lt;Group&gt;"><path id="_Path_17" data-name="&lt;Path&gt;" class="cls-5" d="M225.21,103.19c.94-1.21,1.75-2.56,2.56-3.77a66.85,66.85,0,0,0-11.19-5.66c-.4,1.48-.81,2.83-1.21,4.31A48.28,48.28,0,0,1,225.21,103.19Z"/></g></g><g id="_Group_107" data-name="&lt;Group&gt;"><g id="_Group_108" data-name="&lt;Group&gt;"><path id="_Path_18" data-name="&lt;Path&gt;" class="cls-5" d="M141.22,99.28a37.08,37.08,0,0,0,2.56,3.77,62.6,62.6,0,0,1,10-5c-.4-1.35-.81-2.83-1.21-4.31A73.75,73.75,0,0,0,141.22,99.28Z"/></g></g></g><g id="_Group_109" data-name="&lt;Group&gt;"><g id="_Group_110" data-name="&lt;Group&gt;"><g id="_Group_111" data-name="&lt;Group&gt;"><path id="_Path_19" data-name="&lt;Path&gt;" class="cls-5" d="M194.34,56.81c-.13-1.62-.27-3.1-.4-4.58q-4.45.4-9.3.4-4.65,0-9.3-.4c-.13,1.48-.27,3-.4,4.58a75.28,75.28,0,0,0,9.71.54A78.09,78.09,0,0,0,194.34,56.81Z"/></g></g><g id="_Group_112" data-name="&lt;Group&gt;"><g id="_Group_113" data-name="&lt;Group&gt;"><path id="_Path_20" data-name="&lt;Path&gt;" class="cls-5" d="M158.07,48.72l-1.21,4.45a82.12,82.12,0,0,0,13.48,3.1c.13-1.48.27-3.1.4-4.58A69.81,69.81,0,0,1,158.07,48.72Z"/></g></g><g id="_Group_114" data-name="&lt;Group&gt;"><g id="_Group_115" data-name="&lt;Group&gt;"><path id="_Path_21" data-name="&lt;Path&gt;" class="cls-5" d="M212.41,53.17c-.4-1.62-.81-3-1.21-4.45a72.57,72.57,0,0,1-12.67,3c.13,1.48.27,3.1.4,4.58A85.45,85.45,0,0,0,212.41,53.17Z"/></g></g><g id="_Group_116" data-name="&lt;Group&gt;"><g id="_Group_117" data-name="&lt;Group&gt;"><path id="_Path_22" data-name="&lt;Path&gt;" class="cls-5" d="M228,46.16a37.08,37.08,0,0,0-2.56-3.77,62.6,62.6,0,0,1-10,5c.4,1.35.81,2.83,1.21,4.31A88.3,88.3,0,0,0,228,46.16Z"/></g></g><g id="_Group_118" data-name="&lt;Group&gt;"><g id="_Group_119" data-name="&lt;Group&gt;"><path id="_Path_23" data-name="&lt;Path&gt;" class="cls-5" d="M141.36,45.89a66.85,66.85,0,0,0,11.19,5.66c.4-1.48.81-2.83,1.21-4.31a62.6,62.6,0,0,1-10-5A28.46,28.46,0,0,0,141.36,45.89Z"/></g></g></g></g><polygon class="cls-2" points="250.31 228.7 243.71 262.42 304.01 262.42 297.42 228.7 250.31 228.7"/><polygon class="cls-13" points="299.73 240.37 297.44 228.7 250.33 228.7 248.04 240.37 299.73 240.37"/><rect class="cls-3" x="166.78" y="82.42" width="215.02" height="154.06" rx="6.2" ry="6.2"/><path class="cls-31" d="M375.06,72.13H172.66a5.94,5.94,0,0,0-5.88,6.2V209.25h215V78.33C381.79,74.9,378.49,72.13,375.06,72.13Z"/><path class="cls-3" d="M238.23,259.82H309.9a4.59,4.59,0,0,1,4.59,4.59v.6a0,0,0,0,1,0,0H234.09a0,0,0,0,1,0,0v-1A4.14,4.14,0,0,1,238.23,259.82Z"/><rect class="cls-13" x="179.97" y="89.24" width="186.26" height="107.54"/><rect class="cls-5" x="203.57" y="41.74" width="142.66" height="154.49"/><rect class="cls-32" x="203.57" y="41.74" width="142.66" height="19.56"/><circle class="cls-7" cx="232.1" cy="51.52" r="3.26"/><circle class="cls-7" cx="223.95" cy="51.52" r="3.26"/><circle class="cls-7" cx="215.79" cy="51.52" r="3.26"/><rect class="cls-4" x="215.79" y="72.55" width="63.58" height="3.26"/><rect class="cls-4" x="215.79" y="81.34" width="117.39" height="3.26"/><rect class="cls-4" x="215.79" y="90.12" width="117.39" height="3.26"/><rect class="cls-4" x="215.79" y="98.91" width="34.93" height="3.26"/><rect class="cls-7" x="274.49" y="49.89" width="63.58" height="3.26"/><circle class="cls-13" cx="274.49" cy="148.31" r="39.74"/><path class="cls-33" d="M146.64,158.94a4.14,4.14,0,0,1,4.13-4.13h67.69a4.14,4.14,0,0,1,4.13,4.13V260.88a4.14,4.14,0,0,1-4.13,4.13H150.77a4.13,4.13,0,0,1-4.13-4.13Z"/><rect class="cls-31" x="178.59" y="256.27" width="12.05" height="4.13" rx="1.84" ry="1.84"/><path class="cls-31" d="M184.61,162.08a1.89,1.89,0,0,1,0-3.79,1.89,1.89,0,1,1,0,3.79Z"/><rect class="cls-13" x="150.95" y="165.57" width="67.33" height="86.1"/><rect class="cls-13" x="491.54" y="50.36" width="44.85" height="33.51"/><polygon class="cls-2" points="536.4 83.86 513.97 83.86 491.55 83.86 491.55 67.11 491.55 50.36 513.97 67.65 536.4 50.36 536.4 67.11 536.4 83.86"/><path class="cls-31" d="M73.32,208.8A12.44,12.44,0,0,0,60.9,221.22v14.5H65v-14.5a8.36,8.36,0,0,1,16.72,0v14.5h4.06v-14.5A12.44,12.44,0,0,0,73.32,208.8Z"/><rect class="cls-25" x="53.81" y="230.13" width="39.03" height="34.46"/><rect class="cls-34" x="53.81" y="230.13" width="19.51" height="34.46"/><rect class="cls-35" x="53.81" y="230.13" width="39.03" height="4.06"/><rect class="cls-35" x="53.81" y="260.53" width="39.03" height="4.06"/><path class="cls-3" d="M65.35,247.25a7.94,7.94,0,0,1,7.94-7.94V237a10.24,10.24,0,0,0,0,20.49v-2.3A7.94,7.94,0,0,1,65.35,247.25Z"/><path class="cls-7" d="M73.32,237h0v2.3a7.94,7.94,0,0,1,0,15.88v2.3h0a10.25,10.25,0,1,0,0-20.49Z"/><path class="cls-7" d="M81.23,247.25a7.94,7.94,0,0,0-7.94-7.94v15.88A7.94,7.94,0,0,0,81.23,247.25Z"/><path class="cls-3" d="M65.35,247.25a7.94,7.94,0,0,0,7.94,7.94V239.31A7.94,7.94,0,0,0,65.35,247.25Z"/><path class="cls-33" d="M71.44,251.34l.42-3.43a2.36,2.36,0,1,1,2.8.1l.42,3.33Z"/><path class="cls-7" d="M184.61,223.38A26.39,26.39,0,1,1,211,197,26.42,26.42,0,0,1,184.61,223.38Zm0-50.75A24.36,24.36,0,1,0,209,197,24.39,24.39,0,0,0,184.61,172.63Z"/><rect class="cls-7" x="179.54" y="182.78" width="10.15" height="13.19" rx="4.78" ry="4.78"/><path class="cls-7" d="M179.65,186.8s-2.79-1.3-1.2-5.41c0,0,.79.81,1.2.86,2.12.27,3.62-2.65,8.54.21,2.14,1.24,1.4,1.4,1.4,4.93C189.6,187.38,182.94,184.18,179.65,186.8Z"/><path class="cls-7" d="M193.75,200.72a3.59,3.59,0,0,0-1.52-2.68,17.67,17.67,0,0,0-6-1.72l-1.66,6.06L183,196.32a17.67,17.67,0,0,0-6,1.72,3.59,3.59,0,0,0-1.52,2.68v7.43h18.27Z"/><rect class="cls-7" x="163.3" y="228.7" width="42.63" height="6.09"/><rect class="cls-8" x="163.3" y="228.7" width="8.12" height="6.09"/><circle class="cls-32" cx="199.84" cy="231.75" r="2.03"/><circle class="cls-32" cx="193.75" cy="231.75" r="2.03"/><circle class="cls-32" cx="187.66" cy="231.75" r="2.03"/><circle class="cls-32" cx="181.57" cy="231.75" r="2.03"/><circle class="cls-32" cx="175.48" cy="231.75" r="2.03"/><path class="cls-25" d="M194.76,243.55a3.55,3.55,0,0,1-3.55,3.55H178a3.55,3.55,0,0,1-3.55-3.55h0A3.55,3.55,0,0,1,178,240h13.19a3.55,3.55,0,0,1,3.55,3.55Z"/><path class="cls-7" d="M190.7,244.05H178.52a1,1,0,1,1,0-2H190.7a1,1,0,1,1,0,2Z"/><path class="cls-36" d="M514.67,227.94a14.47,14.47,0,0,0-20.83-16.34,21.28,21.28,0,0,0-31.56-14.53,34.79,34.79,0,0,0-61.59,31.36,18.73,18.73,0,0,0-13.47,17.91h0A18.72,18.72,0,0,0,405.88,265H511.65a18.72,18.72,0,0,0,18.67-18.67h0A18.72,18.72,0,0,0,514.67,227.94Z"/><path class="cls-3" d="M453.43,205.2a10.81,10.81,0,0,0-10.8,10.8v12.6h3.53V216a7.27,7.27,0,0,1,14.53,0v12.6h3.53V216A10.81,10.81,0,0,0,453.43,205.2Z"/><rect class="cls-3" x="436.47" y="223.74" width="33.91" height="29.94"/><rect class="cls-7" x="436.47" y="223.74" width="16.96" height="29.94"/><rect class="cls-2" x="436.47" y="223.74" width="33.91" height="3.53"/><rect class="cls-2" x="436.47" y="250.16" width="33.91" height="3.53"/><path class="cls-3" d="M446.5,238.61a6.9,6.9,0,0,1,6.9-6.9v-2a8.9,8.9,0,0,0,0,17.8v-2A6.9,6.9,0,0,1,446.5,238.61Z"/><path class="cls-7" d="M453.43,229.71h0v2a6.9,6.9,0,0,1,0,13.8v2h0a8.9,8.9,0,1,0,0-17.81Z"/><path class="cls-7" d="M460.3,238.61a6.9,6.9,0,0,0-6.9-6.9v13.8A6.9,6.9,0,0,0,460.3,238.61Z"/><path class="cls-3" d="M446.5,238.61a6.9,6.9,0,0,0,6.9,6.9v-13.8A6.9,6.9,0,0,0,446.5,238.61Z"/><path class="cls-33" d="M451.79,242.17l.36-3a2,2,0,1,1,2.44.09l.36,2.89Z"/><g id="_Group_120" data-name="&lt;Group&gt;"><g id="_Group_121" data-name="&lt;Group&gt;"><g id="_Group_122" data-name="&lt;Group&gt;"><g id="_Group_123" data-name="&lt;Group&gt;"><g id="_Group_124" data-name="&lt;Group&gt;"><g id="_Group_125" data-name="&lt;Group&gt;"><g id="_Group_126" data-name="&lt;Group&gt;"><g id="_Group_127" data-name="&lt;Group&gt;"><g id="_Group_128" data-name="&lt;Group&gt;"><g id="_Group_129" data-name="&lt;Group&gt;"><path id="_Path_24" data-name="&lt;Path&gt;" class="cls-37" d="M274.49,180.66c31.12-8.77,26.23-52.87,26.23-52.87a35.22,35.22,0,0,1-26.23-8.1,35.37,35.37,0,0,1-26.23,8.1S243.37,171.82,274.49,180.66Z"/></g></g></g></g></g></g></g></g><g id="_Group_130" data-name="&lt;Group&gt;"><g id="_Group_131" data-name="&lt;Group&gt;"><g id="_Group_132" data-name="&lt;Group&gt;"><g id="_Group_133" data-name="&lt;Group&gt;"><g id="_Group_134" data-name="&lt;Group&gt;"><g id="_Group_135" data-name="&lt;Group&gt;"><g id="_Group_136" data-name="&lt;Group&gt;"><g id="_Group_137" data-name="&lt;Group&gt;"><path id="_Path_25" data-name="&lt;Path&gt;" class="cls-20" d="M253.34,133.34a40.89,40.89,0,0,0,21.08-6.89,41.75,41.75,0,0,0,21.08,6.89c.13,10.64-1.81,35.07-21.08,41.63C255.21,168.34,253.27,143.92,253.34,133.34Z"/></g></g></g></g></g></g></g></g><g id="_Group_138" data-name="&lt;Group&gt;"><g id="_Group_139" data-name="&lt;Group&gt;"><g id="_Group_140" data-name="&lt;Group&gt;"><g id="_Group_141" data-name="&lt;Group&gt;"><g id="_Group_142" data-name="&lt;Group&gt;"><g id="_Group_143" data-name="&lt;Group&gt;"><g id="_Group_144" data-name="&lt;Group&gt;"><g id="_Group_145" data-name="&lt;Group&gt;"><path id="_Path_26" data-name="&lt;Path&gt;" class="cls-15" d="M255.41,135.08c-.07,9.57,1.61,31.45,18.87,37.34h0v-43.5h0A36.85,36.85,0,0,1,255.41,135.08Z"/></g></g></g></g></g></g></g></g><g id="_Group_146" data-name="&lt;Group&gt;"><g id="_Group_147" data-name="&lt;Group&gt;"><g id="_Group_148" data-name="&lt;Group&gt;"><g id="_Group_149" data-name="&lt;Group&gt;"><g id="_Group_150" data-name="&lt;Group&gt;"><g id="_Group_151" data-name="&lt;Group&gt;"><g id="_Group_152" data-name="&lt;Group&gt;"><g id="_Group_153" data-name="&lt;Group&gt;"><path id="_Compound_Path_8" data-name="&lt;Compound Path&gt;" class="cls-21" d="M274.29,175.44c-19.61-6.69-21.48-31.65-21.42-42.09v-.54h.54A41,41,0,0,0,274.15,126l.27-.2.27.2a40.27,40.27,0,0,0,20.81,6.83H296v.54c.13,10.37-1.74,35.34-21.42,42.09l-.2.07Zm.13-48.39a42.1,42.1,0,0,1-20.55,6.76c0,10.51,2.07,34.06,20.55,40.56C293,167.87,295,144.25,295,133.81A42.1,42.1,0,0,1,274.42,127.05Z"/></g></g></g></g></g></g></g></g></g><g id="_Group_154" data-name="&lt;Group&gt;"><g id="_Group_155" data-name="&lt;Group&gt;"><g id="_Group_156" data-name="&lt;Group&gt;" class="cls-38"><g id="_Group_157" data-name="&lt;Group&gt;"><path id="_Compound_Path_9" data-name="&lt;Compound Path&gt;" d="M262.64,146.86v15.39a1.34,1.34,0,0,0,1.34,1.34h18.67a1.34,1.34,0,0,0,1.34-1.34V146.86a1.34,1.34,0,0,0-1.34-1.34h-1.07v-2.88a8.2,8.2,0,0,0-8.16-8.16h-.2a8.2,8.2,0,0,0-8.16,8.16v2.88H264A1.39,1.39,0,0,0,262.64,146.86Zm5-1.34v-2.88a5.54,5.54,0,0,1,5.55-5.55h.2a5.54,5.54,0,0,1,5.55,5.55v2.88Z"/></g></g><g id="_Group_158" data-name="&lt;Group&gt;"><g id="_Group_159" data-name="&lt;Group&gt;"><g id="_Group_160" data-name="&lt;Group&gt;"><g id="_Group_161" data-name="&lt;Group&gt;"><path id="_Path_27" data-name="&lt;Path&gt;" class="cls-4" d="M263.85,145.66a1.34,1.34,0,0,1,1.34-1.34h18.67a1.34,1.34,0,0,1,1.34,1.34V161a1.34,1.34,0,0,1-1.34,1.34H265.19a1.34,1.34,0,0,1-1.34-1.34Z"/></g></g></g><g id="_Group_162" data-name="&lt;Group&gt;"><g id="_Group_163" data-name="&lt;Group&gt;"><g id="_Group_164" data-name="&lt;Group&gt;"><g id="_Group_165" data-name="&lt;Group&gt;"><g id="_Group_166" data-name="&lt;Group&gt;"><g id="_Group_167" data-name="&lt;Group&gt;"><g id="_Group_168" data-name="&lt;Group&gt;"><g id="_Group_169" data-name="&lt;Group&gt;"><path id="_Path_28" data-name="&lt;Path&gt;" class="cls-7" d="M282.72,144.38v-2.88a8.2,8.2,0,0,0-8.16-8.16h-.2a8.2,8.2,0,0,0-8.16,8.16v2.88h2.61v-2.88a5.54,5.54,0,0,1,5.55-5.55h.2a5.54,5.54,0,0,1,5.55,5.55v2.88Z"/></g></g></g></g></g></g></g></g><g id="_Group_170" data-name="&lt;Group&gt;"><g id="_Group_171" data-name="&lt;Group&gt;"><g id="_Group_172" data-name="&lt;Group&gt;"><g id="_Group_173" data-name="&lt;Group&gt;"><g id="_Group_174" data-name="&lt;Group&gt;"><g id="_Group_175" data-name="&lt;Group&gt;"><g id="_Group_176" data-name="&lt;Group&gt;"><g id="_Group_177" data-name="&lt;Group&gt;"><path id="_Path_29" data-name="&lt;Path&gt;" class="cls-23" d="M273.48,154.56v3.95h2v-3.95a2.9,2.9,0,0,0,1.94-2.74,2.94,2.94,0,1,0-5.89,0A2.9,2.9,0,0,0,273.48,154.56Z"/></g></g></g></g></g></g></g></g></g></g></g></g><path class="cls-8" d="M488.94,60.61a9.15,9.15,0,0,0-9.14,9.14V80.42h3V69.75a6.15,6.15,0,0,1,12.3,0V80.42h3V69.75A9.15,9.15,0,0,0,488.94,60.61Z"/><rect class="cls-25" x="474.58" y="76.3" width="28.71" height="25.35"/><rect class="cls-34" x="474.58" y="76.3" width="14.36" height="25.35"/><rect class="cls-39" x="474.58" y="76.3" width="28.71" height="2.99"/><rect class="cls-39" x="474.58" y="98.67" width="28.71" height="2.99"/><path class="cls-3" d="M483.07,88.9a5.84,5.84,0,0,1,5.84-5.84V81.36a7.54,7.54,0,0,0,0,15.07V94.74A5.84,5.84,0,0,1,483.07,88.9Z"/><path class="cls-7" d="M488.94,81.36h0v1.69a5.84,5.84,0,0,1,0,11.69v1.69h0a7.54,7.54,0,1,0,0-15.08Z"/><path class="cls-7" d="M494.75,88.9a5.84,5.84,0,0,0-5.84-5.84V94.74A5.84,5.84,0,0,0,494.75,88.9Z"/><path class="cls-3" d="M483.07,88.9a5.84,5.84,0,0,0,5.84,5.84V83.05A5.84,5.84,0,0,0,483.07,88.9Z"/><path class="cls-33" d="M487.55,91.9l.31-2.52a1.74,1.74,0,1,1,2.06.07l.31,2.45Z"/></g></g></svg>